<?xml version="1.0" encoding="utf-8"?>
<!-- Generator: Adobe Illustrator 19.0.0, SVG Export Plug-In . SVG Version: 6.00 Build 0)  -->
<svg version="1.1" id="male3" xmlns:sketch="http://www.bohemiancoding.com/sketch/ns"
	 xmlns="http://www.w3.org/2000/svg" xmlns:xlink="http://www.w3.org/1999/xlink" x="0px" y="0px" viewBox="-199 201 100 100"
	 style="enable-background:new -199 201 100 100;" xml:space="preserve">
<style type="text/css">
	.st0{fill:#F5EEE5;}
	.st1{clip-path:url(#SVGID_2_);fill:#E6C19C;}
	.st2{clip-path:url(#SVGID_4_);}
	.st3{clip-path:url(#SVGID_8_);}
	.st4{clip-path:url(#SVGID_9_);}
	.st5{clip-path:url(#SVGID_10_);fill:#FF5722;}
	.st6{clip-path:url(#SVGID_10_);fill:#D4B08C;}
	.st7{clip-path:url(#SVGID_10_);fill:#D98C21;}
	.st8{clip-path:url(#SVGID_4_);fill:#F2CEA5;}
	.st9{clip-path:url(#SVGID_4_);fill:#A3705F;}
	.st10{clip-path:url(#SVGID_4_);fill:none;stroke:#A3705F;stroke-linecap:round;stroke-linejoin:round;}
	.st11{clip-path:url(#SVGID_12_);fill:#291F21;}
	.st12{clip-path:url(#SVGID_14_);fill:#291F21;}
	.st13{clip-path:url(#SVGID_4_);fill:none;stroke:#CC9872;stroke-width:2;}
	.st14{clip-path:url(#SVGID_4_);fill:none;stroke:#BB8660;stroke-width:2;}
	.st15{clip-path:url(#SVGID_4_);fill:#452228;}
	.st16{clip-path:url(#SVGID_4_);fill:#6B363E;}
</style>
<g>
	<g>
		<circle class="st0" cx="-149" cy="251" r="50"/>
		<g>
			<g>
				<defs>
					<circle id="SVGID_1_" cx="-149" cy="251" r="50"/>
				</defs>
				<clipPath id="SVGID_2_">
					<use xlink:href="#SVGID_1_"  style="overflow:visible;"/>
				</clipPath>
				<path class="st1" d="M-134,276.9l27.9,7.7c3.2,1.1,5.7,3.5,7.1,6.6v9.8h-100v-9.8c1.3-3.1,3.9-5.5,7.1-6.6l27.9-7.7V262h30
					V276.9z"/>
			</g>
			<g>
				<defs>
					<circle id="SVGID_3_" cx="-149" cy="251" r="50"/>
				</defs>
				<clipPath id="SVGID_4_">
					<use xlink:href="#SVGID_3_"  style="overflow:visible;"/>
				</clipPath>
				<g class="st2">
					<g>
						<defs>
							<path id="SVGID_5_" d="M-134,276.9l27.9,7.7c3.2,1.1,5.7,3.5,7.1,6.6v9.8h-100v-9.8c1.3-3.1,3.9-5.5,7.1-6.6l27.9-7.7V262h30
								V276.9z"/>
						</defs>
						<defs>
							<path id="SVGID_6_" d="M-134,276.9l27.9,7.7c3.2,1.1,5.7,3.5,7.1,6.6v9.8h-100v-9.8c1.3-3.1,3.9-5.5,7.1-6.6l27.9-7.7V262h30
								V276.9z"/>
						</defs>
						<defs>
							<path id="SVGID_7_" d="M-134,276.9l27.9,7.7c3.2,1.1,5.7,3.5,7.1,6.6v9.8h-100v-9.8c1.3-3.1,3.9-5.5,7.1-6.6l27.9-7.7V262h30
								V276.9z"/>
						</defs>
						<clipPath id="SVGID_8_">
							<use xlink:href="#SVGID_5_"  style="overflow:visible;"/>
						</clipPath>
						<clipPath id="SVGID_9_" class="st3">
							<use xlink:href="#SVGID_6_"  style="overflow:visible;"/>
						</clipPath>
						<clipPath id="SVGID_10_" class="st4">
							<use xlink:href="#SVGID_7_"  style="overflow:visible;"/>
						</clipPath>
						<path class="st5" d="M-199,259h100v42h-100V259z M-149,289c11,0,20-6.3,20-14s-9-14-20-14s-20,6.3-20,14S-160,289-149,289z"/>
						<path class="st6" d="M-149,279c-1.7,0-3.9-0.4-5.4-1.1c-1.7-0.9-8-6.1-10.2-8.3c-2.8-3-4.2-6.8-4.6-13.3
							c-0.4-6.5-2.1-29.7-2.1-35c0-7.5,5.7-19.2,22.1-19.2h0.1l0,0l0,0h0.1c16.5,0.1,22.1,11.7,22.1,19.2c0,5.3-1.7,28.5-2.1,35
							s-1.8,10.2-4.6,13.3c-2.1,2.3-8.4,7.4-10.2,8.3C-145.1,278.6-147.3,279-149,279L-149,279z"/>
						<path class="st7" d="M-149,259c-12.7,0-23,7.4-23,16.5s10.3,16.5,23,16.5s23-7.4,23-16.5S-136.3,259-149,259z M-149,288
							c-10.5,0-19-6-19-13.5s8.5-13.5,19-13.5s19,6,19,13.5S-138.5,288-149,288z"/>
					</g>
				</g>
				<path class="st8" d="M-149,275c-1.5,0-3.5-0.3-4.8-0.9c-1.6-0.7-7.2-4.6-9.1-6.3c-2.5-2.3-3.8-5.1-4.2-10
					c-0.4-4.9-1.9-22.3-1.9-26.3c0-5.7,5.1-14.5,20-14.5l0,0l0,0l0,0l0,0c14.9,0,20,8.8,20,14.5c0,4-1.5,21.5-1.9,26.4
					c-0.4,4.9-1.6,7.7-4.2,10c-1.9,1.7-7.6,5.6-9.1,6.3C-145.5,274.7-147.5,275-149,275L-149,275z"/>
				<path class="st9" d="M-142,262.5c-1.9,2-5.2,3-8.1,2.4c-2.7-0.6-4.7-2-5.7-4.3L-142,262.5z"/>
				<path class="st10" d="M-142,262.5c-1.9,2-5.2,3-8.1,2.4c-2.7-0.6-4.7-2-5.7-4.3L-142,262.5z"/>
				<g class="st2">
					<g>
						<defs>
							<rect id="SVGID_11_" x="-165" y="242" width="31" height="5"/>
						</defs>
						<clipPath id="SVGID_12_">
							<use xlink:href="#SVGID_11_"  style="overflow:visible;"/>
						</clipPath>
						<circle class="st11" cx="-140" cy="246" r="2"/>
					</g>
					<g>
						<defs>
							<rect id="SVGID_13_" x="-165" y="242" width="31" height="5"/>
						</defs>
						<clipPath id="SVGID_14_">
							<use xlink:href="#SVGID_13_"  style="overflow:visible;"/>
						</clipPath>
						<circle class="st12" cx="-158" cy="246" r="2"/>
					</g>
				</g>
				<path class="st13" d="M-164,243c0,0,1.1-3,6.1-3c3.4,0,5.4,1.5,6.4,3"/>
				<path class="st14" d="M-133.9,243c0,0-1.1-3-6.1-3c-4.8,0-7,3-7,5c0,1.9,0,9,0,9"/>
				<path class="st15" d="M-130.2,249.2c0,0,0.8-6.3,3.7-7.2c0.4-1.8,1.5-7,1.5-9.9c0-2.9-0.3-5.7-1.9-8.1c-1.8-2.6-5.6-4.1-7.6-4.1
					c-2.3,1.4-7.7,4.6-9.4,6.5c-0.9,1,0.4,1.8,0.4,1.8s1.2-0.5,1.7-0.6c2.5-0.7,8-1.2,9.7,1.3c2.1,3,2.1,11.8,2.1,13.1
					C-130,243.2-130.2,249.2-130.2,249.2z"/>
				<path class="st16" d="M-171.5,242c2.9,1,3.7,7.2,3.7,7.2s-0.2-6-0.2-7.2c0-1.6,0.2-9.1,3.4-12.7c3.6-4,8.4-5.3,11.1-3.5
					c1.4,0.9,6.1,5.5,11.1,1.7c3-2.3,8.5-7.5,8.5-7.5s-2.9-8.9-16.1-7.9c-5.6,0.5-11.8-0.9-11.8-0.9s-0.1,2.5,0.9,3.8
					c-8.3,2.4-11,8.4-11.8,13c-0.2,0.9-0.3,1.8-0.3,2.7c0,0.5,0,1,0,1.4C-173,235-171.9,240.1-171.5,242z"/>
			</g>
		</g>
	</g>
</g>
</svg>
